<svg xmlns="http://www.w3.org/2000/svg"
    xmlns:xlink="http://www.w3.org/1999/xlink" width="75.092" height="75.092" viewBox="0 0 75.092 75.092">
    <defs>
        <filter id="Icon_ionic-ios-arrow-dropdown-circle" x="0" y="0" width="75.092" height="75.092" filterUnits="userSpaceOnUse">
            <feOffset dy="2" input="SourceAlpha"/>
            <feGaussianBlur stdDeviation="2" result="blur"/>
            <feFlood flood-opacity="0.161"/>
            <feComposite operator="in" in2="blur"/>
            <feComposite in="SourceGraphic"/>
        </filter>
    </defs>
    <g id="Grupo_24" data-name="Grupo 24" transform="translate(-922.454 -1043.454)">
        <circle id="Elipse_2" data-name="Elipse 2" cx="27" cy="27" r="27" transform="translate(933 1052)" fill="#1d1d1b"/>
        <g transform="matrix(1, 0, 0, 1, 922.45, 1043.45)" filter="url(#Icon_ionic-ios-arrow-dropdown-circle)">
            <path id="Icon_ionic-ios-arrow-dropdown-circle-2" data-name="Icon ionic-ios-arrow-dropdown-circle" d="M3.375,34.921A31.546,31.546,0,1,0,34.921,3.375,31.541,31.541,0,0,0,3.375,34.921Zm43.846-6.582a2.938,2.938,0,0,1,4.14,0,2.891,2.891,0,0,1,.849,2.063,2.942,2.942,0,0,1-.864,2.078l-14.3,14.256a2.924,2.924,0,0,1-4.034-.091L18.5,32.176a2.928,2.928,0,1,1,4.14-4.14l12.3,12.421Z" transform="translate(2.63 0.63)" fill="#fff"/>
        </g>
    </g>
</svg>
