<svg xmlns="http://www.w3.org/2000/svg" width="32.004" height="32.004" viewBox="0 0 32.004 32.004">
    <path id="linkedin" d="M16,0A16,16,0,1,0,32,16,16,16,0,0,0,16,0Zm-4.65,24.191h-3.9V12.466h3.9ZM9.4,10.865H9.378A2.031,2.031,0,1,1,9.43,6.813,2.032,2.032,0,1,1,9.4,10.865Zm16,13.326h-3.9V17.918c0-1.576-.564-2.651-1.974-2.651a2.133,2.133,0,0,0-2,1.425,2.669,2.669,0,0,0-.128.951v6.548h-3.9s.051-10.625,0-11.725h3.9v1.66a3.869,3.869,0,0,1,3.512-1.935c2.564,0,4.487,1.676,4.487,5.277Zm0,0" fill="#fff"/>
</svg>
