<svg xmlns="http://www.w3.org/2000/svg" width="32" height="32" viewBox="0 0 32 32">
    <path id="Exclusão_5" data-name="Exclusão 5" d="M16,32A16,16,0,0,1,4.685,4.687,16,16,0,1,1,27.314,27.313,15.9,15.9,0,0,1,16,32Zm-5.187-8.114h0a9.447,9.447,0,1,0-2.455-2.348L7.183,25.047l3.629-1.161Zm8.293-2.594a8.035,8.035,0,0,1-2.764-.773,11.165,11.165,0,0,1-4.649-4.075l-.01-.014c-.019-.03-.034-.051-.043-.062l-.011-.014a5.2,5.2,0,0,1-1.11-2.833,2.991,2.991,0,0,1,.933-2.268l.03-.03a1.378,1.378,0,0,1,.969-.339c.072,0,.141,0,.208.007h.006l.1,0c.286.012.42.035.6.465l.13.314c.436,1.061.679,1.642.721,1.729a.565.565,0,0,1,.037.511,1.437,1.437,0,0,1-.263.386l-.042.048c-.054.064-.109.123-.163.18l-.025.027c-.072.076-.147.155-.223.247l-.011.013a.438.438,0,0,0-.1.576,8.175,8.175,0,0,0,1.534,1.9,6.871,6.871,0,0,0,2.116,1.328l.029.012.067.028a.734.734,0,0,0,.272.054.533.533,0,0,0,.4-.16,9.069,9.069,0,0,0,.639-.842l.1-.135a.528.528,0,0,1,.438-.253.684.684,0,0,1,.241.049c.162.054.777.346,1.829.867l.054.026.135.066.025.012c.19.091.315.151.369.244a2.324,2.324,0,0,1-.163,1.307,2.666,2.666,0,0,1-1.851,1.333A2.447,2.447,0,0,1,19.106,21.292Z" fill="#fff"/>
</svg>
