<svg xmlns="http://www.w3.org/2000/svg" width="32.004" height="32.004" viewBox="0 0 32.004 32.004">
    <path id="twitter" d="M16,0A16,16,0,1,0,32,16,16,16,0,0,0,16,0Zm7.306,12.477q.011.236.01.475A10.379,10.379,0,0,1,12.869,23.4h0a10.4,10.4,0,0,1-5.63-1.65,7.471,7.471,0,0,0,.876.051,7.37,7.37,0,0,0,4.562-1.572,3.677,3.677,0,0,1-3.431-2.551,3.661,3.661,0,0,0,1.659-.063,3.674,3.674,0,0,1-2.947-3.6c0-.017,0-.031,0-.047a3.648,3.648,0,0,0,1.664.459,3.676,3.676,0,0,1-1.137-4.9,10.428,10.428,0,0,0,7.571,3.838,3.675,3.675,0,0,1,6.259-3.35,7.367,7.367,0,0,0,2.332-.891,3.687,3.687,0,0,1-1.615,2.032,7.325,7.325,0,0,0,2.109-.578,7.464,7.464,0,0,1-1.832,1.9Zm0,0" fill="#fff"/>
</svg>
