<svg id="youtube"
    xmlns="http://www.w3.org/2000/svg" width="32.004" height="32.004" viewBox="0 0 32.004 32.004">
    <path id="Caminho_35" data-name="Caminho 35" d="M224.113,214.035l5.205-3-5.205-3Zm0,0" transform="translate(-210.104 -195.035)" fill="#fff"/>
    <path id="Caminho_36" data-name="Caminho 36" d="M16,0A16,16,0,1,0,32,16,16,16,0,0,0,16,0ZM26,16.019a26.411,26.411,0,0,1-.412,4.81,2.506,2.506,0,0,1-1.763,1.762C22.262,23,16,23,16,23s-6.243,0-7.825-.428a2.506,2.506,0,0,1-1.763-1.763A26.3,26.3,0,0,1,6,16a26.394,26.394,0,0,1,.412-4.81A2.557,2.557,0,0,1,8.178,9.413C9.743,9,16,9,16,9s6.26,0,7.825.428a2.506,2.506,0,0,1,1.763,1.763A25.063,25.063,0,0,1,26,16.019Zm0,0" transform="translate(0)" fill="#fff"/>
</svg>
