<svg id="instagram"
    xmlns="http://www.w3.org/2000/svg" width="32.004" height="32.004" viewBox="0 0 32.004 32.004">
    <path id="Caminho_32" data-name="Caminho 32" d="M213.126,210.063A3.063,3.063,0,1,1,210.063,207,3.063,3.063,0,0,1,213.126,210.063Zm0,0" transform="translate(-194.061 -194.061)" fill="#fff"/>
    <path id="Caminho_33" data-name="Caminho 33" d="M150.181,137.6a3.043,3.043,0,0,0-1.744-1.744,5.083,5.083,0,0,0-1.706-.316c-.969-.044-1.26-.054-3.713-.054s-2.744.009-3.713.053a5.086,5.086,0,0,0-1.706.316,3.044,3.044,0,0,0-1.744,1.744,5.085,5.085,0,0,0-.316,1.706c-.044.969-.054,1.259-.054,3.713s.01,2.744.054,3.713a5.083,5.083,0,0,0,.316,1.706,3.043,3.043,0,0,0,1.744,1.744,5.078,5.078,0,0,0,1.706.316c.969.044,1.259.053,3.713.053s2.745-.009,3.713-.053a5.078,5.078,0,0,0,1.706-.316,3.043,3.043,0,0,0,1.744-1.744,5.088,5.088,0,0,0,.316-1.706c.044-.969.053-1.26.053-3.713s-.009-2.744-.053-3.713A5.077,5.077,0,0,0,150.181,137.6Zm-7.163,10.138a4.718,4.718,0,1,1,4.718-4.718A4.718,4.718,0,0,1,143.018,147.74Zm4.9-8.521a1.1,1.1,0,1,1,1.1-1.1A1.1,1.1,0,0,1,147.923,139.219Zm0,0" transform="translate(-127.016 -127.019)" fill="#fff"/>
    <path id="Caminho_34" data-name="Caminho 34" d="M16,0A16,16,0,1,0,32,16,16,16,0,0,0,16,0Zm9.133,19.79a6.742,6.742,0,0,1-.427,2.231,4.7,4.7,0,0,1-2.687,2.687,6.746,6.746,0,0,1-2.23.427c-.98.045-1.293.055-3.788.055s-2.808-.011-3.789-.055a6.746,6.746,0,0,1-2.23-.427A4.7,4.7,0,0,1,7.3,22.021a6.74,6.74,0,0,1-.427-2.23c-.045-.98-.056-1.293-.056-3.789s.01-2.808.055-3.788A6.742,6.742,0,0,1,7.3,9.983,4.7,4.7,0,0,1,9.983,7.3a6.748,6.748,0,0,1,2.231-.427c.98-.045,1.293-.055,3.788-.055s2.808.011,3.788.056a6.749,6.749,0,0,1,2.231.427,4.7,4.7,0,0,1,2.687,2.688,6.741,6.741,0,0,1,.427,2.231c.045.98.055,1.293.055,3.788S25.18,18.811,25.136,19.79Zm0,0" transform="translate(0)" fill="#fff"/>
</svg>
