<svg xmlns="http://www.w3.org/2000/svg" width="9.455" height="11.333" viewBox="0 0 9.455 11.333">
    <g id="user" transform="translate(0 0)">
        <path id="Caminho_30" data-name="Caminho 30" d="M89.761,5.46a2.641,2.641,0,0,0,1.93-.8,2.642,2.642,0,0,0,.8-1.93,2.642,2.642,0,0,0-.8-1.93,2.729,2.729,0,0,0-3.86,0,2.641,2.641,0,0,0-.8,1.93,2.641,2.641,0,0,0,.8,1.93A2.642,2.642,0,0,0,89.761,5.46ZM88.3,1.269c.407-.407-.407.407,0,0Z" transform="translate(-85.105 0)" fill="#2bafcf"/>
        <path id="Caminho_31" data-name="Caminho 31" d="M9.432,250.557a6.743,6.743,0,0,0-.092-.716,5.642,5.642,0,0,0-.176-.72,3.557,3.557,0,0,0-.3-.672,2.531,2.531,0,0,0-.446-.582,1.968,1.968,0,0,0-.641-.4,2.216,2.216,0,0,0-.818-.148.831.831,0,0,0-.444.188c-.133.087-.289.187-.462.3a2.647,2.647,0,0,1-.6.263,2.322,2.322,0,0,1-1.463,0,2.639,2.639,0,0,1-.6-.263l-.463-.3a.83.83,0,0,0-.443-.188,2.213,2.213,0,0,0-.818.148,1.966,1.966,0,0,0-.641.4,2.532,2.532,0,0,0-.446.582,3.563,3.563,0,0,0-.3.672,5.655,5.655,0,0,0-.176.72,6.7,6.7,0,0,0-.092.716c-.015.216-.023.442-.023.669a1.882,1.882,0,0,0,.559,1.424,2.012,2.012,0,0,0,1.44.525H7.456a2.012,2.012,0,0,0,1.44-.525,1.881,1.881,0,0,0,.559-1.424c0-.228-.008-.454-.023-.669Z" transform="translate(0 -241.842)" fill="#2bafcf"/>
    </g>
</svg>
