<svg xmlns="http://www.w3.org/2000/svg" width="24.349" height="24.349" viewBox="0 0 24.349 24.349">
    <path id="twitter" d="M12.174,0A12.174,12.174,0,1,0,24.349,12.174,12.176,12.176,0,0,0,12.174,0Zm5.559,9.492q.008.18.008.361A7.9,7.9,0,0,1,9.79,17.8h0a7.91,7.91,0,0,1-4.283-1.255,5.684,5.684,0,0,0,.667.039,5.607,5.607,0,0,0,3.471-1.2A2.8,2.8,0,0,1,7.034,13.45,2.785,2.785,0,0,0,8.3,13.4a2.8,2.8,0,0,1-2.242-2.739c0-.013,0-.024,0-.036a2.775,2.775,0,0,0,1.266.349,2.8,2.8,0,0,1-.865-3.731,7.934,7.934,0,0,0,5.76,2.92,2.8,2.8,0,0,1,4.762-2.548,5.6,5.6,0,0,0,1.774-.678,2.805,2.805,0,0,1-1.229,1.546,5.573,5.573,0,0,0,1.6-.44,5.679,5.679,0,0,1-1.394,1.447Zm0,0" fill="#007095"/>
</svg>
