<svg xmlns="http://www.w3.org/2000/svg" width="24" height="24" viewBox="0 0 24 24">
    <path id="Exclusão_1" data-name="Exclusão 1" d="M12,24A12,12,0,0,1,3.515,3.515a12,12,0,1,1,16.969,16.97A11.92,11.92,0,0,1,12,24ZM7.7,18.137h0A7.537,7.537,0,1,0,11.847,4.307h0a7.546,7.546,0,0,0-7.536,7.538,7.454,7.454,0,0,0,1.436,4.418l-.94,2.8,2.9-.926Zm6.622-2.072a6.41,6.41,0,0,1-2.208-.617,8.959,8.959,0,0,1-3.7-3.246l0-.007c-.021-.031-.036-.052-.044-.062l-.009-.012A4.165,4.165,0,0,1,7.466,9.86a2.414,2.414,0,0,1,.748-1.812l.022-.023a1.1,1.1,0,0,1,.771-.271c.093,0,.179,0,.253.009.228.01.335.029.478.371l.182.439.047.115c.212.516.413,1,.447,1.076a.448.448,0,0,1,.032.408,1.218,1.218,0,0,1-.229.33l-.014.016c-.045.05-.089.1-.131.142-.058.061-.129.136-.2.221l-.007.008a.352.352,0,0,0-.081.461,6.6,6.6,0,0,0,1.224,1.52,5.535,5.535,0,0,0,1.7,1.063l.068.028a.573.573,0,0,0,.216.043.426.426,0,0,0,.316-.128,7.176,7.176,0,0,0,.5-.649L13.9,13.1a.419.419,0,0,1,.348-.2.548.548,0,0,1,.193.039c.2.068,1.234.58,1.5.713l.123.06c.154.074.255.122.3.2a1.871,1.871,0,0,1-.13,1.047,2.129,2.129,0,0,1-1.478,1.063A1.992,1.992,0,0,1,14.322,16.065Z" fill="#007095"/>
</svg>
