<svg xmlns="http://www.w3.org/2000/svg" width="24" height="24" viewBox="0 0 24 24">
    <path id="Exclusão_2" data-name="Exclusão 2" d="M12,24A12,12,0,0,1,3.515,3.515a12,12,0,1,1,16.969,16.97A11.92,11.92,0,0,1,12,24ZM11.63,9.13a3.538,3.538,0,0,0-2.509,1.037L6.575,12.713a3.548,3.548,0,0,0,5.018,5.018l2.29-2.29a4.534,4.534,0,0,1-.59.039,4.461,4.461,0,0,1-1.784-.369l-1.274,1.272A1.635,1.635,0,0,1,7.923,14.07l2.555-2.555a1.637,1.637,0,0,1,2.166-.131,1.674,1.674,0,0,1,.147.131.716.716,0,0,0,.509.216.691.691,0,0,0,.492-.206l.8-.8a3.6,3.6,0,0,0-.454-.557,3.5,3.5,0,0,0-.794-.6A3.564,3.564,0,0,0,11.63,9.13Zm0,2.825a.711.711,0,0,0-.506.209l-.8.8a3.65,3.65,0,0,0,.455.557,3.548,3.548,0,0,0,5.018,0l2.545-2.547A3.547,3.547,0,0,0,13.329,5.96L11.038,8.25a4.5,4.5,0,0,1,.593-.039,4.445,4.445,0,0,1,1.782.369l1.274-1.272A1.634,1.634,0,1,1,17,9.619l-2.555,2.556a1.6,1.6,0,0,1-1.141.471,1.641,1.641,0,0,1-1.009-.348,1.4,1.4,0,0,1-.151-.133A.711.711,0,0,0,11.634,11.955Z" fill="#007095"/>
</svg>
