<svg xmlns="http://www.w3.org/2000/svg" width="24.349" height="24.349" viewBox="0 0 24.349 24.349">
    <path id="linkedin" d="M12.174,0A12.174,12.174,0,1,0,24.349,12.174,12.176,12.176,0,0,0,12.174,0ZM8.637,18.4H5.672V9.484H8.637ZM7.154,8.266H7.135a1.545,1.545,0,1,1,.039-3.082,1.546,1.546,0,1,1-.02,3.082ZM19.328,18.4H16.363V13.632c0-1.2-.429-2.017-1.5-2.017A1.623,1.623,0,0,0,13.34,12.7a2.03,2.03,0,0,0-.1.724V18.4H10.277s.039-8.083,0-8.92h2.965v1.263a2.944,2.944,0,0,1,2.672-1.472c1.951,0,3.413,1.275,3.413,4.015Zm0,0" fill="#007095"/>
</svg>
